Coordinates
version=1
nRows=17
nColumns=40
inDegrees=yes

Units are S.I. units (second, meters, Newtons, ...)
If the header above contains a line with 'inDegrees', this indicates whether rotational values are in degrees (yes) or radians (no).

endheader
time	pelvis_tilt	pelvis_list	pelvis_rotation	pelvis_tx	pelvis_ty	pelvis_tz	hip_flexion_r	hip_adduction_r	hip_rotation_r	knee_angle_r	knee_angle_r_beta	ankle_angle_r	subtalar_angle_r	mtp_angle_r	hip_flexion_l	hip_adduction_l	hip_rotation_l	knee_angle_l	knee_angle_l_beta	ankle_angle_l	subtalar_angle_l	mtp_angle_l	lumbar_extension	lumbar_bending	lumbar_rotation	arm_flex_r	arm_add_r	arm_rot_r	elbow_flex_r	pro_sup_r	wrist_flex_r	wrist_dev_r	arm_flex_l	arm_add_l	arm_rot_l	elbow_flex_l	pro_sup_l	wrist_flex_l	wrist_dev_l
      1.00000000	      3.25555113	     -9.71273673	     83.50029693	      0.21202913	      0.88893656	     -0.79474850	    -14.17990508	      6.24183829	      2.54758191	      5.21685831	      0.09105135	      6.49334447	      0.00000000	     -0.00000000	     38.97712658	     -5.17030345	     -8.23007863	      5.65382411	      0.09867785	      2.87136605	     -0.00000000	      0.00000000	      0.81618373	      3.23023984	      9.01963758	      0.00000000	      0.00000000	      0.00000000	      0.00000000	      0.00000000	     -0.00000000	     -0.00000000	      0.00000000	      0.00000000	     -0.00000000	      0.00000000	      0.00000000	      0.00000000	     -0.00000000
      1.01000000	      2.75683120	     -9.65778682	     83.61752731	      0.21130182	      0.88780961	     -0.81535671	    -13.87447488	      5.43114661	      1.61410176	      7.96104146	      0.13894639	      5.02289772	      0.00000000	      0.00000000	     38.90565899	     -4.47063901	     -8.23929256	      7.12502470	      0.12435514	      1.59783062	      0.00000000	      0.00000000	      0.97779037	      2.65916064	      8.83818458	      0.00000000	      0.00000000	      0.00000000	      0.00000000	      0.00000000	      0.00000000	      0.00000000	      0.00000000	      0.00000000	      0.00000000	      0.00000000	      0.00000000	      0.00000000	      0.00000000
      1.02000000	      2.32738684	     -9.47916045	     83.78213627	      0.21052827	      0.88735307	     -0.83609293	    -13.42995917	      4.65477929	      0.63709114	     11.09260498	      0.19360248	      2.90348242	      0.00000000	      0.00000000	     38.69552727	     -3.85124467	     -8.24590102	      8.89895582	      0.15531608	      0.16568223	      0.00000000	      0.00000000	      0.99976946	      2.14876567	      8.59757448	      0.00000000	      0.00000000	      0.00000000	      0.00000000	      0.00000000	      0.00000000	      0.00000000	      0.00000000	      0.00000000	      0.00000000	      0.00000000	      0.00000000	      0.00000000	      0.00000000
      1.03000000	      1.93298891	     -9.23494936	     83.97901921	      0.20970440	      0.88748195	     -0.85687390	    -12.68527837	      3.86718790	     -0.36180933	     14.78333528	      0.25801788	      0.39282114	      0.00000000	      0.00000000	     38.35679342	     -3.27290390	     -8.18082669	     10.78778763	      0.18828241	     -1.27957301	      0.00000000	      0.00000000	      0.93842017	      1.66991908	      8.30070871	      0.00000000	      0.00000000	      0.00000000	      0.00000000	      0.00000000	      0.00000000	      0.00000000	      0.00000000	      0.00000000	      0.00000000	      0.00000000	      0.00000000	      0.00000000	      0.00000000
      1.04000000	      1.55462136	     -8.92426728	     84.18702201	      0.20883543	      0.88817193	     -0.87765958	    -11.67500443	      3.03997943	     -1.29715679	     18.93998034	      0.33056502	     -2.48846979	      0.00000000	      0.00000000	     37.88331276	     -2.72473522	     -8.10682454	     12.72269226	      0.22205287	     -2.62704913	      0.00000000	      0.00000000	      0.79845029	      1.20396222	      7.97090415	      0.00000000	      0.00000000	      0.00000000	      0.00000000	      0.00000000	      0.00000000	      0.00000000	      0.00000000	      0.00000000	      0.00000000	      0.00000000	      0.00000000	      0.00000000	      0.00000000
      1.05000000	      1.18175071	     -8.60072155	     84.40044076	      0.20795166	      0.88930052	     -0.89829584	    -10.30616297	      2.18882013	     -2.04916722	     23.60275135	      0.41194572	     -5.49428519	      0.00000000	      0.00000000	     37.30106042	     -2.19081825	     -8.03853820	     14.56812971	      0.25426183	     -3.74035552	      0.00000000	      0.00000000	      0.62115184	      0.75023048	      7.58673807	      0.00000000	      0.00000000	      0.00000000	      0.00000000	      0.00000000	      0.00000000	      0.00000000	      0.00000000	      0.00000000	      0.00000000	      0.00000000	      0.00000000	      0.00000000	      0.00000000
      1.06000000	      0.78773415	     -8.29372778	     84.59510507	      0.20705540	      0.89078377	     -0.91867784	     -8.59515991	      1.30589481	     -2.55554862	     28.62781166	      0.49964957	     -8.41009078	     -0.00000000	      0.00000000	     36.63640147	     -1.65093805	     -7.98454832	     16.27287978	      0.28401533	     -4.56118186	      0.00000000	     -0.00000000	      0.43914277	      0.28095458	      7.20327700	      0.00000000	      0.00000000	      0.00000000	      0.00000000	      0.00000000	      0.00000000	     -0.00000000	      0.00000000	      0.00000000	      0.00000000	      0.00000000	      0.00000000	     -0.00000000	      0.00000000
      1.07000000	      0.36047246	     -8.02288254	     84.76258345	      0.20616896	      0.89256536	     -0.93873888	     -6.57042331	      0.41933704	     -2.77313545	     33.86415862	      0.59104107	    -11.02367135	      0.00000000	      0.00000000	     35.88956314	     -1.08753030	     -7.96699224	     17.76832526	      0.31011578	     -5.02872345	      0.00000000	      0.00000000	      0.26849314	     -0.21451217	      6.80916322	      0.00000000	      0.00000000	      0.00000000	      0.00000000	      0.00000000	      0.00000000	      0.00000000	      0.00000000	      0.00000000	      0.00000000	      0.00000000	      0.00000000	      0.00000000	      0.00000000
      1.08000000	     -0.06523206	     -7.68897282	     84.90852361	      0.20533906	      0.89479236	     -0.95852908	     -4.45905144	     -0.42699246	     -2.77116719	     39.03022558	      0.68120594	    -13.34312754	      0.00000000	      0.00000000	     34.97025394	     -0.53191977	     -8.02232340	     19.09150843	      0.33320968	     -5.10490827	     -0.00000000	     -0.00000000	     -0.00989657	     -0.71850373	      6.42862793	     -0.00000000	      0.00000000	      0.00000000	      0.00000000	      0.00000000	      0.00000000	      0.00000000	     -0.00000000	     -0.00000000	     -0.00000000	      0.00000000	      0.00000000	     -0.00000000	     -0.00000000
      1.09000000	     -0.50704714	     -7.74521809	     85.01608887	      0.20453283	      0.89672423	     -0.97765869	     -1.63096595	     -1.15286487	     -2.45031312	     44.32474960	      0.77361282	    -14.50030200	      0.00000000	      0.00000000	     34.31378632	      0.03890118	     -8.00076902	     20.05676109	      0.35005652	     -5.05338684	      0.00000000	      0.00000000	      0.10876852	     -1.16904168	      6.04582523	      0.00000000	      0.00000000	      0.00000000	      0.00000000	      0.00000000	      0.00000000	      0.00000000	      0.00000000	      0.00000000	      0.00000000	      0.00000000	      0.00000000	      0.00000000	      0.00000000
      1.10000000	     -0.90622867	     -7.67428121	     85.11715143	      0.20376708	      0.89919013	     -0.99657567	      1.07644170	     -1.78530708	     -2.06515684	     49.17748554	      0.85830904	    -15.30394604	      0.00000000	      0.00000000	     33.38744825	      0.59327339	     -8.02136717	     20.80499127	      0.36311560	     -4.65039648	      0.00000000	      0.00000000	      0.04748552	     -1.59273500	      5.65683166	      0.00000000	     -0.00000000	     -0.00000000	      0.00000000	      0.00000000	      0.00000000	      0.00000000	      0.00000000	      0.00000000	      0.00000000	      0.00000000	      0.00000000	      0.00000000	      0.00000000
      1.11000000	     -1.25842024	     -7.66170086	     85.20292608	      0.20309393	      0.90186309	     -1.01516453	      3.90309377	     -2.30657610	     -1.65129346	     53.61959671	      0.93583851	    -15.47116759	      0.00000000	      0.00000000	     32.37224103	      1.11674880	     -8.02293273	     21.27114935	      0.37125159	     -4.08599202	      0.00000000	      0.00000000	      0.02347092	     -1.96444380	      5.27353365	      0.00000000	      0.00000000	      0.00000000	      0.00000000	      0.00000000	      0.00000000	      0.00000000	      0.00000000	      0.00000000	      0.00000000	      0.00000000	      0.00000000	      0.00000000	      0.00000000
      1.12000000	     -1.59563434	     -7.58855714	     85.30077308	      0.20230975	      0.90488865	     -1.03356378	      6.65785002	     -2.79390895	     -1.26441034	     57.51699550	      1.00386095	    -15.02692477	      0.00000000	      0.00000000	     31.12188547	      1.67917145	     -8.02441756	     21.42221227	      0.37388814	     -3.26332684	      0.00000000	      0.00000000	     -0.10895184	     -2.28671147	      4.89433296	      0.00000000	      0.00000000	      0.00000000	      0.00000000	      0.00000000	      0.00000000	      0.00000000	      0.00000000	      0.00000000	      0.00000000	      0.00000000	      0.00000000	      0.00000000	      0.00000000
      1.13000000	     -1.79589577	     -7.55377219	     85.37791270	      0.20169273	      0.90810194	     -1.05167886	      9.44264905	     -3.06360282	     -0.87399227	     60.82606525	      1.06161511	    -14.05343601	      0.00000000	      0.00000000	     29.75495937	      2.13125314	     -7.86662251	     21.29032164	      0.37158621	     -2.48089086	      0.00000000	      0.00000000	     -0.21719022	     -2.45657777	      4.52274628	      0.00000000	      0.00000000	      0.00000000	      0.00000000	      0.00000000	      0.00000000	      0.00000000	      0.00000000	      0.00000000	      0.00000000	      0.00000000	      0.00000000	      0.00000000	      0.00000000
      1.14000000	     -1.92695121	     -7.59420290	     85.47252645	      0.20104693	      0.91138039	     -1.06957122	     12.27656637	     -3.25684364	     -0.59941781	     63.51321086	      1.10851465	    -12.76846328	      0.00000000	      0.00000000	     28.33029353	      2.52299727	     -7.74873862	     20.88951659	      0.36459084	     -1.82820840	      0.00000000	     -0.00000000	     -0.26961307	     -2.52442680	      4.10442989	      0.00000000	     -0.00000000	      0.00000000	      0.00000000	      0.00000000	      0.00000000	      0.00000000	      0.00000000	      0.00000000	     -0.00000000	      0.00000000	      0.00000000	      0.00000000	      0.00000000
      1.15000000	     -1.94798101	     -7.63246184	     85.55390811	      0.20048903	      0.91477663	     -1.08731915	     15.02054382	     -3.30947101	     -0.40263191	     65.51010948	      1.14336710	    -11.19491867	     -0.00000000	     -0.00000000	     26.76664509	      2.81045659	     -7.56855484	     20.23932604	      0.35324288	     -1.14624761	      0.00000000	      0.00000000	     -0.34222966	     -2.46745995	      3.70552694	      0.00000000	     -0.00000000	      0.00000000	      0.00000000	      0.00000000	     -0.00000000	     -0.00000000	      0.00000000	     -0.00000000	      0.00000000	      0.00000000	      0.00000000	     -0.00000000	      0.00000000
      1.16000000	     -1.98017658	     -7.71129857	     85.66221802	      0.19985692	      0.91809205	     -1.10489594	     17.74947596	     -3.41309208	     -0.35336206	     66.87514993	      1.16719155	     -9.41222818	      0.00000000	     -0.00000000	     25.14580451	      3.13532400	     -7.34908264	     19.37278348	      0.33811886	     -0.62502914	     -0.00000000	     -0.00000000	     -0.38398375	     -2.40738998	      3.33871026	      0.00000000	     -0.00000000	     -0.00000000	      0.00000000	      0.00000000	      0.00000000	      0.00000000	     -0.00000000	      0.00000000	     -0.00000000	      0.00000000	      0.00000000	     -0.00000000	      0.00000000
